<svg t="1580641663748" class="icon" viewBox="0 0 1024 1024" version="1.1" xmlns="http://www.w3.org/2000/svg" p-id="7790" width="100%" height="100%"><path d="M800.32 118.464c20.224 16.768 33.6 30.272 43.776 40.384l26.88 26.816c6.656 6.72 10.112 13.376 10.112 20.16 0 6.72 3.328 10.112 3.328 13.376v16.768h-151.168a26.688 26.688 0 0 1-16.96-6.656c-6.656-3.392-9.92-10.112-13.44-16.768-3.2-6.72-6.656-13.504-6.656-20.16-3.392-6.72-3.392-13.376-3.392-16.768V58.048h3.392c6.656 0 10.112 0 16.768 3.328 6.72 0 13.44 3.392 20.288 10.112 6.592 3.392 16.832 10.048 26.88 20.16 9.984 0 23.424 13.44 40.192 26.816z m-171.456 57.28c0 13.376 3.328 26.816 6.784 40.32 3.328 13.376 9.92 26.816 20.032 40.32 10.112 13.44 20.224 20.16 33.664 30.272 13.376 10.048 30.272 10.048 47.04 10.048h151.168v537.728c0 20.096-3.328 37.12-13.44 50.496s-16.832 26.88-30.208 36.992a191.744 191.744 0 0 1-43.776 23.488 119.296 119.296 0 0 1-47.04 9.984H249.088c-13.376 0-26.944-3.392-43.648-9.984-16.768-6.72-30.272-16.896-43.776-27.008-13.376-9.856-23.424-23.616-33.536-40.256-9.984-13.504-13.376-30.272-13.376-47.104V179.008c0-13.504 3.392-26.88 10.048-43.776 6.656-13.376 16.832-26.816 26.944-40.384 9.92-13.376 23.552-23.488 36.928-30.208 13.44-6.72 30.272-13.376 43.648-13.376h389.888l6.656 124.48z m60.544 598.272c16.704 0 33.6-6.72 43.776-16.896 13.44-13.376 20.032-26.88 20.032-43.52 0-16.896-6.656-30.4-20.032-43.776-13.504-13.504-27.072-16.896-43.776-16.896H309.632a63.68 63.68 0 0 0-43.776 16.896c-13.376 10.112-20.032 26.88-20.032 43.776 0 16.768 6.592 30.144 20.032 43.52 13.504 13.376 26.944 16.896 43.776 16.896h379.776z m63.872-299.264c0-16.768-6.656-30.272-20.032-43.776-13.504-13.376-27.072-16.768-43.776-16.768H309.632c-16.768 0-33.6 6.656-43.776 16.768-13.376 13.44-20.032 26.88-20.032 43.776 0 16.896 6.592 30.336 20.032 43.776 13.504 13.568 26.944 16.96 43.776 16.96h383.104a63.488 63.488 0 0 0 43.776-16.96c10.112-13.376 16.768-26.816 16.768-43.776z" fill="#3da8f6" p-id="7791"></path></svg>