<svg t="1580876004331" class="icon" viewBox="0 0 1024 1024" version="1.1" xmlns="http://www.w3.org/2000/svg" p-id="3073" width="100%" height="100%"><path d="M964.608 934.4c0 16.896-13.824 30.72-30.72 30.72h-844.8c-16.896 0-30.72-13.824-30.72-30.72V161.28c0-16.896 13.824-30.72 30.72-30.72h552.96l74.24-71.68h217.6c16.896 0 30.72 13.824 30.72 30.72v844.8z" fill="#E5994A" p-id="3074"></path><path d="M119.04 194.56h785.152v522.24H119.04z" fill="#030000" p-id="3075"></path><path d="M127.488 204.8h768v496.64h-768z" fill="#FFFFFF" p-id="3076"></path><path d="M216.832 333.056h303.36v15.36H216.832z" fill="#989898" p-id="3077"></path><path d="M965.888 939.264c0 15.616-13.824 28.416-30.72 28.416h-847.36c-16.896 0-30.72-12.8-30.72-28.416V376.576c0-15.616 13.824-28.416 30.72-28.416h847.36c16.896 0 30.72 12.8 30.72 28.416v562.688z" fill="#030000" p-id="3078"></path><path d="M965.888 937.472c0 15.36-13.824 27.904-30.72 27.904h-847.36c-16.896 0-30.72-12.544-30.72-27.904V385.536c0-15.36 13.824-27.904 30.72-27.904h847.36c16.896 0 30.72 12.544 30.72 27.904v551.936z" fill="#EDBD73" p-id="3079"></path></svg>
