<svg t="1580795531217" class="icon" viewBox="0 0 1155 1024" version="1.1" xmlns="http://www.w3.org/2000/svg" p-id="2426" width="100%" height="100%"><path d="M1028.647385 928.794256a72.073846 72.073846 0 0 1-72.126359 72.04759H54.193231l126.345846-594.497641a72.100103 72.100103 0 0 1 72.073846-72.04759h830.148923a72.04759 72.04759 0 0 1 72.073846 72.04759l-126.188307 522.450051z m-830.017641-648.533333h811.848205V209.447385a72.126359 72.126359 0 0 0-72.126359-72.04759H505.278359v-65.378462A72.126359 72.126359 0 0 0 433.152 0H72.126359A72.126359 72.126359 0 0 0 0 72.073846v856.72041l126.188308-576.485743a72.362667 72.362667 0 0 1 72.362666-72.073846h0.07877z" fill="#3C7EE5" p-id="2427"></path></svg>
