<svg t="1580541305369" class="icon" viewBox="0 0 1024 1024" version="1.1" xmlns="http://www.w3.org/2000/svg" p-id="4733" width="100%" height="100%"><path d="M491.4 488.4H259.7c-81.4 0-147.3-66-147.3-147.3v-41.8c0-104.9 85-189.9 189.9-189.9H344c81.4 0 147.3 66 147.3 147.3v231.7z" fill="#FF7A42" p-id="4734"></path><path d="M491.4 536.3H259.7c-81.4 0-147.3 66-147.3 147.3v41.8c0 104.9 85 189.9 189.9 189.9H344c81.4 0 147.3-66 147.3-147.3V536.3z" fill="#FFDA81" p-id="4735"></path><path d="M539.9 488.4h231.6c81.4 0 147.3-66 147.3-147.3v-41.8c0-104.9-85-189.9-189.9-189.9h-41.8c-81.4 0-147.3 66-147.3 147.3v231.7z" fill="#B7FF7B" p-id="4736"></path><path d="M539.9 536.3h231.6c81.4 0 147.3 66 147.3 147.3v41.8c0 104.9-85 189.9-189.9 189.9h-41.8c-81.4 0-147.3-66-147.3-147.3V536.3z" fill="#9BB0FF" p-id="4737"></path></svg>
