<svg t="1580632257991" class="icon" viewBox="0 0 1024 1024" version="1.1" xmlns="http://www.w3.org/2000/svg" p-id="2183" width="100%" height="100%"><path d="M217.7536 102.4c-6.9888 0-17.5104 3.584-28.0064 10.6752-10.496 7.1424-10.496 21.376-10.496 28.4928v737.28c0 10.7008 3.4816 21.376 10.496 28.4928 10.496 10.7008 20.992 14.2592 28.0064 14.2592H809.728c10.496 0 21.0176-3.584 28.032-10.6752 7.0144-7.1424 7.0144-17.8176 7.0144-28.4928V333.9008L620.5952 102.4H217.7536z" fill="#B3B3B3" p-id="2184"></path><path d="M844.7744 333.9008h-182.144c-10.496 0-21.0176-3.5584-28.032-10.6752-7.0144-7.1168-10.496-17.8176-10.496-28.4928V102.4l220.672 231.5008z" fill="#000000" fill-opacity=".1" p-id="2185"></path><path d="M502.784 418.6112c26.624 0 48.3328 6.9632 64.7168 21.7088 16.384 14.336 24.576 33.9968 24.576 58.9824 0 20.48-5.3248 37.2736-15.1552 50.3808-3.6864 4.096-15.5648 15.1552-35.2256 32.3584a58.1632 58.1632 0 0 0-16.384 20.0704c-4.096 8.192-6.144 17.2032-6.144 27.0336v5.7344h-47.104v-5.7344c0-15.5648 2.4576-29.0816 8.192-40.1408 5.3248-11.0592 21.2992-28.2624 47.9232-52.0192l4.9152-5.7344c7.3728-9.0112 11.0592-18.8416 11.0592-29.0816 0-13.5168-4.096-24.1664-11.4688-31.9488-7.7824-7.7824-18.8416-11.4688-32.768-11.4688-17.6128 0-30.3104 5.3248-38.5024 16.384-6.9632 9.4208-10.24 22.9376-10.24 40.5504H404.48c0-30.3104 8.6016-54.0672 26.624-71.2704 17.6128-17.2032 41.3696-25.8048 71.68-25.8048z m-7.3728 236.3392c9.0112 0 16.7936 2.8672 22.9376 8.6016 5.7344 5.7344 9.0112 13.1072 9.0112 22.1184s-3.2768 16.7936-9.0112 22.528a33.28 33.28 0 0 1-22.9376 8.6016c-9.0112 0-16.384-3.2768-22.1184-9.0112-6.5536-5.7344-9.4208-13.1072-9.4208-22.1184s2.8672-16.384 9.4208-22.1184c5.7344-5.7344 13.1072-8.6016 22.1184-8.6016z" fill="#FFFFFF" p-id="2186"></path></svg>
