<svg t="1580555557538" class="icon" viewBox="0 0 1024 1024" version="1.1" xmlns="http://www.w3.org/2000/svg" p-id="16562" width="100%" height="100%"><path d="M512 0C230.4 0 0 230.4 0 512s230.4 512 512 512 512-230.4 512-512S793.6 0 512 0z m0 164.571429c102.4 0 182.857143 80.457143 182.857143 182.857142s-80.457143 182.857143-182.857143 182.857143-182.857143-80.457143-182.857143-182.857143 80.457143-182.857143 182.857143-182.857142z m303.542857 610.742857c-14.628571 14.628571-36.571429 14.628571-51.2 0-69.485714-65.828571-157.257143-98.742857-252.342857-98.742857-95.085714 0-182.857143 36.571429-252.342857 98.742857-7.314286 7.314286-14.628571 10.971429-25.6 10.971428-10.971429 0-18.285714-3.657143-25.6-10.971428-14.628571-14.628571-14.628571-36.571429 0-51.2 80.457143-76.8 190.171429-120.685714 299.885714-120.685715 113.371429 0 219.428571 43.885714 299.885714 120.685715 18.285714 14.628571 21.942857 36.571429 7.314286 51.2z" p-id="16563"></path><path d="M512 347.428571m-109.714286 0a109.714286 109.714286 0 1 0 219.428572 0 109.714286 109.714286 0 1 0-219.428572 0Z" p-id="16564"></path></svg>
