<svg t="1582088503905" class="icon" viewBox="0 0 1024 1024" version="1.1" xmlns="http://www.w3.org/2000/svg" p-id="1597" width="100%" height="100%"><path d="M822.933333 906.666667H222.4c-54.933333 0-99.733333-44.8-99.733333-99.733334V206.4C122.666667 151.466667 167.466667 106.666667 222.4 106.666667h601.066667c54.933333 0 99.733333 44.8 99.733333 99.733333v601.066667c-0.533333 54.4-45.333333 99.2-100.266667 99.2z" fill="#2aa515" p-id="1598" data-spm-anchor-id="a313x.7781069.0.i1" class=""></path><path d="M823.466667 752H221.866667c-54.933333 0-99.2-44.266667-99.2-99.2V205.866667C122.666667 150.933333 166.933333 106.666667 221.866667 106.666667h601.6c54.933333 0 99.2 44.266667 99.2 99.2v446.933333c0 54.933333-44.266667 99.2-99.2 99.2z" fill="#7cba59" p-id="1599" data-spm-anchor-id="a313x.7781069.0.i4" class="selected"></path><path d="M122.666667 266.666667h800v485.333333H122.666667z" fill="#7cba59" p-id="1600" data-spm-anchor-id="a313x.7781069.0.i0" class="selected"></path><path d="M721.066667 106.666667c5.866667 17.066667 8.533333 34.666667 8.533333 53.333333 0 100.8-89.066667 181.866667-198.933333 181.866667S331.733333 260.8 331.733333 160c0-18.666667 3.2-36.266667 8.533334-53.333333h-23.466667c-5.333333 17.066667-8 34.666667-8 53.333333 0 112 99.2 202.666667 221.333333 202.666667S752 272 752 160c0-18.666667-2.666667-36.266667-8-53.333333h-22.933333z" fill="#FFFFFF" p-id="1601"></path></svg>