<svg t="1580896747872" class="icon" viewBox="0 0 1024 1024" version="1.1" xmlns="http://www.w3.org/2000/svg" p-id="6212" width="100%" height="100%"><path d="M512 512m-512 0a512 512 0 1 0 1024 0 512 512 0 1 0-1024 0Z" fill="#45CAAD" p-id="6213"></path><path d="M779.636364 500.363636c-13.963636-18.618182-32.581818-25.6-46.545455-30.254545 0 0-2.327273 0-2.327273-2.327273-6.981818-37.236364-18.618182-76.8-53.527272-107.054545-41.890909-39.563636-97.745455-62.836364-153.6-62.836364-41.890909 0-83.781818 11.636364-123.345455 34.909091-25.6 18.618182-44.218182 44.218182-60.509091 67.490909-32.581818 9.309091-65.163636 18.618182-86.109091 41.890909-32.581818 32.581818-48.872727 72.145455-48.872727 118.690909 0 95.418182 79.127273 172.218182 176.872727 172.218182h283.927273c81.454545 0 146.618182-62.836364 146.618182-141.963636 2.327273-30.254545-11.636364-62.836364-32.581818-90.763637z m-16.290909 90.763637c0 51.2-44.218182 93.090909-97.745455 93.090909H384c-69.818182 0-128-55.854545-128-123.345455 0-32.581818 11.636364-60.509091 34.909091-83.781818 13.963636-13.963636 39.563636-23.272727 65.163636-30.254545 9.309091-2.327273 16.290909-6.981818 18.618182-11.636364l4.654546-4.654545c13.963636-23.272727 27.927273-44.218182 48.872727-58.181819 30.254545-18.618182 62.836364-27.927273 95.418182-27.927272 44.218182 0 88.436364 18.618182 121.018181 48.872727 23.272727 20.945455 32.581818 48.872727 39.563637 86.109091 0 6.981818 4.654545 18.618182 18.618182 25.6 4.654545 2.327273 6.981818 4.654545 11.636363 4.654545 11.636364 4.654545 18.618182 9.309091 27.927273 18.618182 13.963636 20.945455 20.945455 44.218182 20.945455 62.836364z" fill="#FFFFFF" p-id="6214"></path></svg>
