<svg version="1.1" xmlns="http://www.w3.org/2000/svg" xmlns:xlink="http://www.w3.org/1999/xlink" x="0%" y="0%" viewBox="0 0 536 223" style="enable-background:new 0 0 536 223;"><style type="text/css">.st0{fill:#0ACC59;}.st1{fill:#369E76;}.st2{fill:#349970;}.st3{fill:#3FAA81;}.st4{fill:#FFFFFF;}.st5{fill:none;}.st6{font-family:'MicrosoftYaHei-Bold';}.st7{font-size:60px;}</style><polygon class="st0" points="-0.5,-0.5 231.5,223.5 0.5,223.5 "/><polygon class="st1" points="166.5,-0.5 84.7,81.8 -0.5,-0.5 "/><polygon class="st2" points="339,223 536,44 536,223 "/><polygon class="st3" points="536,0 166,-1 83,82 227,224 339,223 536,44 "/><path class="st4" d="M135.8,100c0,27.6,22.4,50,50,50s50-22.4,50-50s-22.4-50-50-50S135.8,72.4,135.8,100z"/><path class="st3" d="M211.9,98.9c-1.4-1.8-3.2-2.5-4.5-3c0,0-0.2,0-0.2-0.2c-0.7-3.6-1.8-7.5-5.2-10.5c-4.1-3.9-9.5-6.1-15-6.1c-4.1,0-8.2,1.1-12,3.4c-2.5,1.8-4.3,4.3-5.9,6.6c-3.2,0.9-6.4,1.8-8.4,4.1c-3.2,3.2-4.8,7-4.8,11.6c0,9.3,7.7,16.8,17.3,16.8h27.7c8,0,14.3-6.1,14.3-13.9C215.3,104.8,213.9,101.6,211.9,98.9z M210.3,107.7c0,5-4.3,9.1-9.5,9.1h-27.5c-6.8,0-12.5-5.5-12.5-12c0-3.2,1.1-5.9,3.4-8.2c1.4-1.4,3.9-2.3,6.4-3c0.9-0.2,1.6-0.7,1.8-1.1l0.5-0.5c1.4-2.3,2.7-4.3,4.8-5.7c3-1.8,6.1-2.7,9.3-2.7c4.3,0,8.6,1.8,11.8,4.8c2.3,2,3.2,4.8,3.9,8.4c0,0.7,0.5,1.8,1.8,2.5c0.5,0.2,0.7,0.5,1.1,0.5c1.1,0.5,1.8,0.9,2.7,1.8C209.6,103.6,210.3,105.9,210.3,107.7L210.3,107.7z"/><rect x="242.5" y="69" class="st5" width="182" height="75.5"/><text transform="matrix(1 0 0 1 242.5 120.6211)" class="st4 st6 st7">云服务</text></svg>
